<?xml version="1.0"?>
<svg width="512" height="512" xmlns="http://www.w3.org/2000/svg" xmlns:svg="http://www.w3.org/2000/svg">
<g>
  <circle cx="256" cy="256" fill="#0A0695" id="circle" r="256"/>
  <path id="triangle" fill="transparent" stroke="white" stroke-linejoin="round" stroke-width="20" d="m70,144l186,326l186,-326l-372,0z"/>
  <path id="bulb" fill="white" d="m307,245.73508c0,28.2805 -27.32143,47.40583 -27.32143,69.72325l-14.51314,0c0,-14.11988 7.26386,-25.98492 14.33829,-37.44246c6.64457,-10.76479 12.92486,-20.93871 12.92486,-32.28079c0,-21.1085 -18.33814,-32.15175 -36.45771,-32.15175c-18.09043,0 -36.39943,11.04325 -36.39943,32.15175c0,11.34208 6.28029,21.516 12.92486,32.28079c7.07443,11.45754 14.32371,23.32258 14.331,37.44246l-14.50586,0c0,-22.31742 -27.32143,-41.44954 -27.32143,-69.72325c0,-29.49621 25.48543,-45.73508 50.97086,-45.73508c25.51457,0 51.02914,16.25925 51.02914,45.73508l-0.00001,0zm-29.14286,79.91075c0,1.8745 -1.632,3.39583 -3.64286,3.39583l-36.42857,0c-2.01086,0 -3.64286,-1.52133 -3.64286,-3.39583s1.632,-3.39583 3.64286,-3.39583l36.42857,0c2.01086,0 3.64286,1.52133 3.64286,3.39583zm0,13.58333c0,1.8745 -1.632,3.39583 -3.64286,3.39583l-36.42857,0c-2.01086,0 -3.64286,-1.52133 -3.64286,-3.39583s1.632,-3.39583 3.64286,-3.39583l36.42857,0c2.01086,0 3.64286,1.52133 3.64286,3.39583zm-12.393,21.45488c-1.38429,1.467 -3.38786,2.31596 -5.48614,2.31596l-7.96329,0c-2.09829,0 -4.09457,-0.84896 -5.47886,-2.31596l-10.57157,-11.26738l40.07143,0l-10.57157,11.26738z"/>
</g>
</svg>